<?xml version="1.0" standalone="no"?>
<!DOCTYPE svg PUBLIC "-//W3C//DTD SVG 20010904//EN"
 "http://www.w3.org/TR/2001/REC-SVG-20010904/DTD/svg10.dtd">
<svg version="1.0" xmlns="http://www.w3.org/2000/svg"
 width="2000.000000pt" height="2000.000000pt" viewBox="0 0 2000.000000 2000.000000"
 preserveAspectRatio="xMidYMid meet">
<metadata>
Created by potrace 1.11, written by Peter Selinger 2001-2013
</metadata>
<g transform="translate(0.000000,2000.000000) scale(0.100000,-0.100000)"
fill="#000000" stroke="none">
<path d="M17896 19668 c-70 -15 -152 -63 -551 -319 -90 -58 -515 -317 -590
-359 -205 -116 -458 -257 -540 -300 -55 -29 -113 -60 -130 -70 -16 -9 -88 -48
-160 -85 -300 -157 -677 -385 -941 -568 -83 -57 -159 -111 -170 -120 -10 -9
-66 -53 -124 -99 -134 -106 -215 -189 -300 -308 -93 -131 -151 -236 -401 -730
-190 -377 -317 -576 -341 -537 -3 6 -4 29 -2 51 4 45 67 251 90 294 7 15 14
30 14 34 0 7 22 57 87 198 170 366 237 540 207 540 -14 0 -246 -188 -354 -286
-19 -18 -45 -41 -58 -52 -12 -11 -61 -55 -109 -98 -47 -44 -94 -86 -104 -95
-19 -16 -193 -177 -314 -290 -119 -111 -193 -179 -320 -294 -43 -38 -87 -79
-99 -90 -11 -11 -64 -58 -116 -105 -52 -46 -100 -89 -106 -95 -14 -13 -139
-124 -168 -148 -12 -10 -46 -40 -76 -66 -30 -27 -152 -131 -270 -231 -118
-100 -244 -208 -280 -240 -36 -32 -76 -68 -90 -80 -32 -27 -92 -82 -260 -238
-167 -155 -875 -865 -1065 -1067 -77 -82 -157 -167 -178 -189 -22 -23 -80 -86
-130 -140 -51 -55 -99 -107 -107 -116 -16 -17 -202 -221 -260 -284 -19 -21
-44 -49 -55 -60 -11 -12 -60 -66 -110 -121 -81 -91 -144 -161 -185 -205 -8 -9
-69 -76 -135 -150 -66 -74 -140 -157 -165 -184 -53 -57 -46 -50 -135 -151 -38
-44 -82 -93 -96 -110 -15 -16 -49 -55 -75 -86 -27 -30 -74 -84 -105 -120 -133
-152 -368 -431 -449 -534 -30 -39 -57 -72 -60 -75 -3 -3 -51 -63 -106 -135
-275 -356 -516 -713 -849 -1260 -53 -88 -107 -176 -120 -195 -13 -19 -85 -136
-161 -260 -76 -124 -183 -295 -238 -380 -136 -212 -194 -309 -262 -436 -31
-60 -117 -212 -189 -339 -72 -126 -153 -270 -180 -320 -27 -49 -66 -121 -87
-160 -21 -38 -140 -275 -264 -525 -222 -448 -472 -947 -684 -1370 -138 -274
-133 -270 -405 -295 -76 -7 -946 -31 -1215 -34 l-65 -1 0 -444 c0 -244 3 -447
6 -450 7 -7 61 -13 189 -21 85 -5 114 -8 185 -20 83 -13 165 -53 165 -80 0
-39 -168 -158 -375 -265 -151 -79 -364 -191 -388 -205 -344 -199 -531 -369
-616 -556 -27 -59 -69 -226 -87 -344 -4 -27 -9 -57 -10 -65 -2 -8 -6 -31 -9
-50 -3 -19 -7 -46 -9 -60 -3 -14 -7 -43 -11 -65 -3 -22 -10 -67 -15 -100 -5
-33 -12 -80 -15 -105 -6 -49 -16 -116 -20 -140 -2 -8 -6 -44 -10 -80 -4 -36
-8 -72 -10 -80 -1 -8 -6 -40 -9 -71 -4 -31 -8 -65 -10 -75 -2 -11 -7 -48 -11
-84 -3 -36 -8 -76 -10 -90 -2 -14 -7 -52 -10 -85 -3 -33 -8 -73 -10 -90 -7
-49 -14 -115 -20 -190 -4 -38 -8 -79 -10 -90 -1 -11 -6 -56 -10 -100 -3 -44
-8 -93 -10 -110 -2 -16 -7 -73 -10 -125 -4 -52 -8 -111 -10 -130 -18 -181 -23
-401 -12 -489 22 -162 117 -225 412 -271 39 -6 81 -13 95 -15 14 -2 43 -6 65
-9 55 -7 135 -17 170 -21 17 -2 68 -6 115 -10 47 -3 96 -8 110 -10 14 -2 86
-7 160 -11 74 -4 160 -8 190 -10 425 -23 1649 -22 2270 0 282 11 432 17 495
21 39 3 120 7 180 10 61 3 137 8 170 10 33 3 96 7 140 10 157 11 401 32 456
41 14 2 51 6 81 9 30 3 66 8 79 10 13 3 44 8 69 11 25 3 47 8 50 9 3 2 26 6
50 10 47 7 172 46 225 69 17 8 39 16 50 18 18 3 20 11 19 93 -1 50 -5 144 -8
210 -4 66 -9 158 -11 205 -2 47 -7 130 -9 185 -3 55 -8 145 -11 200 -3 55 -7
125 -10 155 -3 30 -7 89 -10 130 -11 141 -23 278 -31 331 -2 20 -6 58 -9 84
-6 73 -17 178 -21 199 -2 10 -6 44 -9 75 -6 57 -12 106 -20 151 -2 14 -9 61
-15 105 -12 83 -15 102 -31 195 -5 30 -14 80 -19 110 -17 100 -51 254 -71 327
-49 178 -111 274 -299 463 -107 107 -138 133 -240 209 -139 104 -235 156 -395
217 -49 19 -99 39 -110 44 -11 5 -63 27 -115 50 -132 57 -176 85 -210 132 -40
54 -39 92 1 129 46 43 120 62 299 75 52 4 102 8 110 10 8 1 22 3 30 3 13 1 15
57 14 447 -1 245 -3 447 -5 449 -4 3 -82 10 -224 20 -44 3 -102 8 -130 10 -27
2 -95 7 -149 10 -55 3 -118 8 -140 10 -23 2 -86 7 -141 10 -55 4 -101 8 -102
9 -2 1 46 28 105 58 59 31 141 75 182 98 234 128 636 312 850 390 58 21 143
52 190 69 47 17 94 35 105 40 11 5 58 23 105 41 47 18 94 36 105 41 11 4 92
37 180 73 149 60 277 115 403 172 29 13 54 24 56 24 22 0 608 291 823 409 181
100 235 130 377 216 144 88 436 289 531 366 58 47 137 110 195 154 36 27 67
52 70 55 3 3 61 50 130 105 384 307 590 488 621 547 8 16 5 21 -24 33 -64 26
-153 35 -390 39 -92 2 -169 5 -171 7 -2 2 53 30 122 61 144 64 267 103 362
113 138 14 218 49 370 164 195 147 422 386 832 876 9 11 99 119 199 240 101
121 191 229 200 240 10 11 34 40 54 65 21 25 57 68 80 95 23 28 104 124 180
215 75 91 147 176 159 190 11 14 55 66 96 115 41 50 82 99 92 110 9 11 69 83
133 160 65 77 129 154 144 171 14 17 85 102 156 189 72 87 177 215 235 285 58
69 121 146 140 170 19 24 47 58 61 75 26 30 229 280 284 350 17 21 93 118 170
215 77 97 148 188 158 201 10 13 62 83 115 154 170 228 267 382 274 435 2 21
-2 26 -26 28 -16 2 -50 -2 -75 -8 -25 -7 -54 -13 -63 -15 -196 -40 -1117 -340
-1458 -475 -178 -71 -264 -107 -325 -135 -212 -98 -373 -140 -389 -100 -18 49
244 224 470 313 27 11 119 48 204 82 85 34 209 82 275 106 66 24 136 51 155
59 19 7 76 28 125 45 50 18 99 36 110 40 11 5 112 41 225 80 570 199 884 321
960 372 142 95 327 327 477 598 17 30 43 78 58 105 16 28 42 75 58 105 27 51
69 129 137 255 15 28 53 100 85 160 52 99 164 308 235 440 48 88 211 391 280
520 20 39 55 104 77 145 22 41 52 95 65 120 14 25 49 90 78 145 29 55 61 114
70 130 10 17 57 104 105 195 49 91 100 188 115 215 26 49 140 264 211 400 34
64 258 513 463 925 70 141 216 421 246 470 8 14 79 143 141 255 205 376 272
539 249 600 -11 29 -26 34 -74 23z"/>
</g>
</svg>
